<svg xmlns="http://www.w3.org/2000/svg" width="552" height="96" fill="none">
    <path fill="#fff"
        d="M63.642 55.057c-1.598-.101-2.527-.997-2.773-2.674-.066-.446-.066-.458-.073-3.354l-.006-2.803h1.414l.005 2.712c.005 2.443.008 2.73.032 2.901.096.698.288 1.167.614 1.504.261.27.567.427.99.511.2.04.768.04.95 0a2.108 2.108 0 0 0 1.076-.575c.346-.34.602-.824.726-1.37l.041-.184.005-2.734.005-2.734h1.443v8.596h-1.428v-.682c0-.463-.006-.68-.016-.676a.56.56 0 0 0-.082.123c-.26.456-.643.833-1.106 1.09-.539.292-1.08.396-1.817.349Zm16.217-.007a3.789 3.789 0 0 1-1.642-.528c-1.023-.623-1.629-1.651-1.807-3.065a7.311 7.311 0 0 1-.017-1.561c.114-.93.485-1.841 1.013-2.492a5.13 5.13 0 0 1 .611-.602c.457-.36.99-.61 1.561-.734a5.167 5.167 0 0 1 1.267-.073c.883.08 1.693.49 2.243 1.135.56.655.867 1.571.906 2.698.006.177.008.487.004.69l-.008.366-3.095.004-3.095.004v.136c.006.443.101.88.279 1.287.152.346.415.724.63.906.44.375.989.604 1.569.653.218.02.775 0 1.025-.038a4.381 4.381 0 0 0 1.932-.785l.137-.099c.016-.01.02.114.019.635v.647l-.147.089a5.177 5.177 0 0 1-2.074.708c-.223.027-1.043.04-1.31.019Zm2.694-5.457c0-.694-.297-1.464-.717-1.86a1.981 1.981 0 0 0-1.093-.522 3.264 3.264 0 0 0-.848.023 2.23 2.23 0 0 0-1.157.606 3.102 3.102 0 0 0-.766 1.208c-.059.167-.127.44-.148.593l-.01.073h4.739v-.12Zm-41.981 5.241 2.335-6.042 2.329-6.022h1.497l.061.156c.19.479 4.663 11.914 4.663 11.92 0 .004-.359.007-.796.007h-.797l-.644-1.69-.645-1.69h-5.19l-.022.057c-.013.032-.288.792-.612 1.69l-.59 1.633h-.797c-.632 0-.797-.004-.792-.019Zm7.53-4.65c0-.004-.434-1.162-.965-2.574-.991-2.644-1.046-2.802-1.125-3.227-.037-.2-.056-.204-.077-.023a4.18 4.18 0 0 1-.135.581c-.026.08-.473 1.287-.993 2.683-.318.85-.633 1.7-.946 2.55 0 .008.954.014 2.12.014 1.167 0 2.12-.003 2.12-.005Zm3.836 4.45v-.221l2.586-3.5 2.586-3.502-2.341-.007-2.342-.008-.004-.585-.004-.585h6.773v.395l-2.587 3.52a1433.778 1433.778 0 0 0-2.585 3.527c0 .004 1.15.008 2.555.008h2.555v1.177h-7.192v-.22Zm18.976.209c-.006-.006-.01-1.947-.01-4.313v-4.304h1.413v.887c0 .489.006.888.013.888.008 0 .042-.08.077-.178.164-.455.434-.865.79-1.198a2.058 2.058 0 0 1 1.116-.546c.12-.02.224-.023.466-.017.305.008.463.03.648.09l.06.018v1.445l-.168-.083a1.807 1.807 0 0 0-.936-.184 1.765 1.765 0 0 0-1.45.824 4.118 4.118 0 0 0-.591 1.673c-.012.103-.018.936-.021 2.58l-.004 2.428h-.696c-.383 0-.701-.004-.707-.01ZM20.3 36.75c.238 0 .47.074.663.21.193.137.338.33.414.552l6.906 20.173a1.105 1.105 0 0 1-.154 1.012 1.134 1.134 0 0 1-.924.467h7.958c.273 0 .535-.097.742-.272a1.105 1.105 0 0 0 .335-1.207l-6.905-20.173a1.122 1.122 0 0 0-.414-.552 1.148 1.148 0 0 0-.663-.21H20.3Zm-.257.087c-.238 0-.47.074-.664.21-.193.138-.338.33-.414.553L12.06 57.772a1.105 1.105 0 0 0 .153 1.011 1.131 1.131 0 0 0 .923.467h5.557c.238 0 .47-.073.664-.21.193-.137.338-.33.415-.553l1.35-3.927-2.58-2.437c-.047-.047-.26-.432-.07-.758.212-.315.568-.315.568-.315h3.324l1.745-4.957-2.984-8.65c-.008-.043-.175-.26-.439-.433-.263-.174-.643-.173-.643-.173Zm-.939 14.36a.53.53 0 0 0-.487.327.51.51 0 0 0 .13.567l7.275 6.695c.212.195.481.31.77.31 0 0 .247.016.396-.007.35-.055.678-.336.787-.454.28-.367.153-.939.153-.939l-2.203-6.5-6.82.001Z" />
    <path stroke="#fff" d="M120.5 34v28" opacity=".4" />
    <path fill="#fff"
        d="M180.801 44.162c-1.503 0-3.18.579-3.532 2.485-.037.203.097.299.226.327l1.54.186c.143-.009.24-.162.267-.309.132-.656.671-.965 1.273-.965.325 0 .69.112.883.41.22.334.205.787.205 1.171v.226c-.915.105-2.121.17-2.977.554-.988.44-1.684 1.334-1.684 2.649 0 1.684 1.032 2.525 2.361 2.525 1.122 0 1.743-.264 2.608-1.17.287.427.379.621.903 1.068a.318.318 0 0 0 .37-.041v.02c.315-.287.888-.81 1.211-1.088.129-.108.101-.285 0-.431-.289-.409-.595-.738-.595-1.499v-2.525c0-1.07.09-2.056-.678-2.792-.605-.596-1.614-.8-2.381-.8Zm20.695 0c-1.504 0-3.179.579-3.531 2.485-.037.203.096.299.225.327l1.541.186c.142-.009.24-.162.267-.309.132-.656.671-.965 1.273-.965.326 0 .689.112.882.41.22.334.185.787.185 1.171v.226c-.915.105-2.1.17-2.957.554-.989.44-1.683 1.334-1.683 2.649 0 1.684 1.033 2.525 2.361 2.525 1.121 0 1.741-.264 2.608-1.17.286.427.379.621.903 1.068a.32.32 0 0 0 .37-.041v.02c.316-.287.889-.81 1.212-1.088.128-.108.098-.285 0-.431-.29-.409-.596-.738-.596-1.499v-2.525c0-1.07.069-2.056-.698-2.792-.607-.596-1.595-.8-2.362-.8Zm-11.641.082c-.972 0-1.691.49-2.073 1.54h-.021v-1.088a.308.308 0 0 0-.287-.288h-1.479a.314.314 0 0 0-.308.309v8.315a.321.321 0 0 0 .288.287h1.58a.309.309 0 0 0 .308-.308v-4.414c0-.963-.046-2.279 1.088-2.279 1.121 0 .965 1.353.965 2.279v4.414c0 .156.128.298.288.308h1.581a.31.31 0 0 0 .307-.308v-4.414c0-.472-.019-1.16.144-1.581.162-.42.561-.698.945-.698.456 0 .806.16.924.718.073.333.041 1.211.041 1.56v4.415c0 .156.128.298.287.308h1.581a.31.31 0 0 0 .307-.308v-5.256c0-.893.089-1.907-.41-2.608-.443-.629-1.165-.903-1.828-.903-.928 0-1.793.49-2.176 1.54-.442-1.05-1.065-1.54-2.052-1.54Zm26.875 0c-2.284 0-3.552 2.009-3.552 4.6 0 2.572 1.253 4.639 3.552 4.639 2.211 0 3.614-2.02 3.614-4.558 0-2.624-1.271-4.68-3.614-4.68Zm9.013 0c-1.092 0-1.716.546-2.156 1.684h-.02v-1.273c-.029-.129-.15-.218-.288-.226h-1.458a.303.303 0 0 0-.308.267v8.315c0 .156.13.298.287.308h1.561a.312.312 0 0 0 .307-.308v-4.476c0-.56.048-1.072.268-1.58.177-.403.52-.658.903-.658 1.089 0 .985 1.327.985 2.238v4.517a.314.314 0 0 0 .288.268h1.581a.312.312 0 0 0 .307-.268v-5.235c0-.805.002-1.922-.41-2.587-.442-.718-1.142-.986-1.847-.986Zm-18.97.144c-.161 0-.288.128-.288.308v1.19c0 .18.123.308.288.309h2.709l-3.1 4.578c-.188.295-.205.63-.205.821v1.212c0 .175.19.364.37.267 1.767-.965 3.884-.88 5.482-.02.194.105.39-.093.39-.268v-1.273a.536.536 0 0 0-.287-.452c-.907-.52-1.96-.681-2.956-.657l2.689-3.941c.249-.355.388-.567.39-.74v-1.026c0-.176-.121-.307-.287-.307h-5.195Zm9.957 1.56c.5 0 .87.224 1.047.8.205.667.226 1.498.226 2.198 0 1.067-.05 2.833-1.273 2.833-1.237 0-1.231-2.186-1.231-3.203-.001-1.014.067-2.627 1.231-2.627Zm-35.088 3.039v.35c0 .63.023 1.162-.287 1.723-.251.457-.646.74-1.088.74-.604 0-.965-.491-.965-1.191 0-1.38 1.2-1.622 2.34-1.622Zm20.696 0v.35c0 .63.023 1.162-.287 1.723-.252.457-.643.74-1.089.74-.605 0-.965-.491-.965-1.191 0-1.38 1.199-1.622 2.341-1.622ZM212.583 53.584v1.191h.801v-1.191h-.801Zm-23.22.206v8.479h.739v-.76c.157.301.336.526.554.677.217.152.466.226.738.226.543 0 1.012-.277 1.417-.841.405-.565.616-1.383.616-2.423 0-.68-.087-1.245-.267-1.724-.18-.477-.42-.833-.718-1.068-.301-.234-.641-.37-1.006-.37a1.32 1.32 0 0 0-.72.206c-.212.136-.385.36-.554.636V53.79h-.799Zm7.596 1.991c-.557 0-1 .165-1.314.493-.314.328-.471.75-.471 1.273 0 .304.067.562.184.8.117.24.283.433.493.575.21.143.63.33 1.252.534.431.139.688.257.801.35a.671.671 0 0 1 .247.554.93.93 0 0 1-.288.698c-.19.183-.454.267-.801.267-.347 0-.632-.098-.841-.308-.21-.21-.322-.53-.37-.965l-.801.164c.181 1.317.838 1.972 1.971 1.97.604 0 1.067-.17 1.416-.533.35-.363.535-.85.535-1.437 0-.317-.057-.591-.165-.82a1.298 1.298 0 0 0-.452-.535c-.194-.132-.63-.31-1.293-.534-.482-.169-.764-.292-.862-.37a.641.641 0 0 1-.246-.533c0-.231.076-.427.246-.575.171-.148.432-.226.781-.226.611 0 .954.336 1.026 1.006l.78-.123c-.054-.424-.146-.76-.287-.986a1.533 1.533 0 0 0-.615-.555c-.269-.134-.574-.184-.926-.184Zm4.907 0c-.641 0-1.183.264-1.602.821-.418.557-.614 1.364-.614 2.423 0 1.02.201 1.819.614 2.36.415.541.952.801 1.623.801.533 0 .974-.16 1.334-.492.361-.333.623-.823.759-1.48l-.821-.143c-.235.84-.671 1.251-1.272 1.252-.384 0-.697-.162-.965-.513-.269-.35-.42-.871-.451-1.56h3.53v-.287c0-1.037-.206-1.814-.616-2.361-.41-.547-.907-.821-1.519-.821Zm4.866 0a.736.736 0 0 0-.514.205c-.154.14-.327.43-.513.862v-.944h-.719v6.138h.801V58.84c0-.447.043-.877.144-1.273.058-.228.167-.407.308-.534a.685.685 0 0 1 .472-.185c.188 0 .376.076.574.226l.268-.965c-.279-.223-.553-.328-.821-.328Zm9.813 0c-.634 0-1.156.267-1.561.8-.402.535-.614 1.336-.614 2.403 0 1.058.215 1.86.614 2.402.401.54.902.8 1.52.8.511 0 .95-.19 1.314-.575.364-.384.587-.951.678-1.683l-.781-.123c-.058.523-.194.9-.41 1.15a.995.995 0 0 1-.781.369c-.387 0-.717-.181-.965-.554-.247-.374-.369-.972-.369-1.807 0-.81.131-1.393.39-1.765.259-.373.59-.575.985-.575.264 0 .49.102.678.307.189.206.314.53.389.945l.782-.164c-.094-.647-.302-1.134-.638-1.458-.335-.323-.742-.472-1.231-.472Zm4.579 0c-.642 0-1.183.264-1.602.821-.418.557-.616 1.364-.616 2.423 0 1.02.202 1.819.616 2.36.416.541.952.801 1.622.801.531 0 .974-.16 1.335-.492.359-.333.621-.823.76-1.48l-.822-.143c-.237.84-.652 1.251-1.252 1.252-.384 0-.718-.162-.986-.513-.267-.35-.419-.871-.451-1.56h3.531v-.287c0-1.037-.207-1.814-.616-2.361-.408-.547-.907-.821-1.519-.821Zm4.743 0c-.559 0-1 .165-1.314.493-.315.327-.472.75-.472 1.273 0 .304.047.562.164.8.116.24.283.433.493.575.209.143.63.33 1.253.534.429.139.709.257.821.35a.673.673 0 0 1 .246.554.93.93 0 0 1-.287.698c-.189.183-.454.267-.801.267-.348 0-.632-.098-.842-.308-.208-.21-.344-.53-.39-.965l-.8.164c.181 1.317.836 1.972 1.97 1.97.606 0 1.088-.17 1.437-.533s.533-.85.533-1.437c0-.317-.055-.591-.163-.82a1.337 1.337 0 0 0-.472-.535c-.195-.132-.61-.31-1.273-.534-.482-.169-.784-.292-.883-.37a.644.644 0 0 1-.246-.533c0-.231.097-.427.267-.575.17-.148.434-.226.781-.226.612 0 .954.336 1.026 1.006l.78-.123c-.054-.424-.146-.76-.287-.986a1.543 1.543 0 0 0-.616-.555c-.267-.134-.575-.184-.925-.184Zm-18.314.123 1.787 6.139h.759l1.787-6.139h-.821l-1.048 3.757c-.126.454-.238.847-.308 1.17-.087-.407-.171-.836-.287-1.252l-1.026-3.675h-.843Zm5.03 0v6.139h.801v-6.139h-.801Zm-26.321.083c-.635 0-1.145.284-1.559.841-.415.557-.638 1.364-.638 2.423 0 1.02.206 1.8.616 2.34.41.54.958.821 1.623.821.527 0 .957-.18 1.313-.513.357-.333.603-.823.74-1.478l-.801-.123c-.234.839-.657 1.25-1.252 1.252-.381 0-.7-.163-.965-.514-.266-.35-.421-.87-.452-1.56h3.49l.021-.287c0-1.036-.211-1.834-.616-2.382-.405-.547-.914-.82-1.52-.82Zm-9.012.143 1.437 6.139h.842l.944-4.722.165 1.047.759 3.675h.821l1.458-6.139h-.759l-.802 3.552-.267 1.19-.246-1.19-.698-3.552h-.821l-.74 3.593-.246 1.273-.287-1.314-.739-3.552h-.821Zm24.595.493c.399 0 .728.193.986.575.177.261.292.66.328 1.19h-2.649c.025-.538.178-.954.432-1.272.254-.318.545-.493.903-.493Zm19.258 0c.398 0 .727.193.985.575.178.261.293.66.329 1.19h-2.649c.026-.538.178-.954.432-1.272.252-.318.545-.493.903-.493Zm-34.841.226c.395 0 .712.193.966.575.176.261.292.66.328 1.19h-2.608c.025-.538.159-.975.411-1.292.251-.32.548-.474.903-.474Zm5.092 0c.356 0 .66.197.904.575.245.377.349.96.349 1.766 0 .784-.115 1.37-.37 1.765-.254.396-.555.595-.882.595a.997.997 0 0 1-.657-.246c-.199-.166-.344-.403-.452-.718-.108-.316-.164-.803-.164-1.438 0-.748.134-1.308.39-1.704.256-.395.555-.596.882-.596ZM165.742 50.341l-3.059 1.314 2.833 1.211 3.285-1.211-3.059-1.314Zm-4.599 1.642-.102 5.914 4.476 1.97v-6.139l-4.374-1.745Zm9.198 0-4.045 1.54v5.79l4.045-1.642v-5.688Zm4.825-18.395-3.08 1.313 2.854 1.212 3.285-1.212-3.059-1.313Zm-4.271 1.745v5.913l3.819 1.108.123-5.379-3.942-1.642Zm8.541.328-3.614 1.54v5.81l3.614-1.642v-5.708Zm-18.735 6.249-3.059 1.314 2.833 1.211 3.285-1.211-3.059-1.314Zm-4.598 1.643L156 49.465l4.476 1.971v-6.139l-4.373-1.744Zm9.197 0-4.044 1.54v5.79l4.044-1.643v-5.687Zm5.256-1.861-3.059 1.313 2.833 1.211 3.285-1.211-3.059-1.313Zm-4.599 1.642-.102 5.913 4.475 1.97V45.08l-4.373-1.745Zm9.198 0-4.044 1.54v5.79l4.044-1.643v-5.688Zm9.636-9.746-3.059 1.313 2.833 1.212 3.286-1.212-3.06-1.313Zm-4.599 1.642-.103 5.914 4.476 1.97v-6.138l-4.373-1.746Zm9.198 0-4.045 1.54v5.79l4.045-1.643V35.23Z" />
    <path stroke="#fff" d="M264.5 34v28" opacity=".4" />
    <path fill="#fff"
        d="M300.001 63.352h2.377v-9.235l3.682 8.05c.434.975 1.028 1.32 2.195 1.32 1.166 0 1.738-.345 2.172-1.32l3.682-8.05v9.235h2.377v-9.22c0-.899-.365-1.334-1.12-1.559-1.807-.554-3.019-.074-3.568 1.125l-3.612 7.945-3.498-7.945c-.526-1.2-1.761-1.68-3.567-1.125-.755.225-1.121.66-1.121 1.559v9.22h.001Zm18.463-7.518h2.378v5.088c-.022.276.09.925 1.392.946.665.01 5.13 0 5.172 0v-6.059h2.383c.011 0-.003 8.262-.003 8.296.013 2.038-2.57 2.48-3.761 2.515h-7.509v-1.574c.013 0 7.503.002 7.522 0 1.531-.16 1.35-.907 1.349-1.159v-.613h-5.054c-2.351-.021-3.849-1.03-3.868-2.192-.001-.106.051-5.196-.001-5.248ZM331.654 63.15h6.849c.802 0 1.581-.165 2.199-.45 1.03-.465 1.534-1.095 1.534-1.922v-1.71c0-.676-.572-1.307-1.695-1.726-.595-.226-1.329-.345-2.039-.345h-2.886c-.962 0-1.42-.285-1.534-.915-.023-.075-.023-.135-.023-.21v-1.066c0-.06 0-.12.023-.195.114-.48.366-.616 1.214-.69l.229-.016h6.803v-1.56h-6.688c-.962 0-1.466.06-1.924.195-1.42.435-2.039 1.125-2.039 2.326v1.366c0 1.05 1.215 1.951 3.253 2.161.229.015.458.03.687.03h2.473c.092 0 .184 0 .253.015.756.06 1.076.195 1.305.465a.551.551 0 0 1 .183.42v1.366c0 .165-.114.375-.343.555-.206.18-.55.3-1.008.33l-.252.015h-6.574v1.56Zm25.442-2.716c0 1.605 1.214 2.506 3.664 2.686.229.015.458.03.687.03h6.207v-1.56h-6.252c-1.397 0-1.924-.346-1.924-1.172v-8.074h-2.382v8.09Zm-13.34.08V54.95c0-1.413 1.01-2.27 3.007-2.541.213-.03.427-.046.642-.045h4.522c.23 0 .436.014.665.045 1.997.27 3.007 1.127 3.007 2.541v5.566c0 1.147-.429 1.76-1.417 2.16l2.347 2.082h-2.766l-1.899-1.684-1.911.119h-2.548a5.34 5.34 0 0 1-1.399-.196c-1.515-.405-2.25-1.188-2.25-2.481Zm2.571-.135c0 .076.023.152.046.242.137.646.757 1.007 1.698 1.007h2.164l-1.988-1.764h2.766l1.733 1.539c.32-.168.53-.423.604-.752.022-.076.022-.15.022-.226v-5.339c0-.06 0-.136-.022-.21-.138-.602-.758-.948-1.676-.948h-3.604c-1.055 0-1.744.452-1.744 1.158v5.294h.001ZM369.889 49.555c-1.456-.04-2.568.095-3.519.494-.27.113-.701.116-.745.453.148.156.171.387.29.578.227.365.61.855.952 1.112.373.28.758.581 1.159.825.712.432 1.508.68 2.194 1.112.404.256.805.577 1.2.866.196.142.326.364.58.453v-.04c-.133-.17-.168-.401-.29-.578l-.538-.536c-.526-.696-1.194-1.306-1.905-1.813-.566-.405-1.833-.952-2.069-1.608l-.042-.04c.401-.046.872-.19 1.242-.29.623-.166 1.179-.123 1.822-.288l.869-.248v-.164c-.325-.332-.557-.772-.911-1.072-.926-.785-1.939-1.57-2.98-2.226-.578-.363-1.292-.599-1.905-.906-.205-.104-.567-.158-.704-.33-.322-.408-.497-.926-.745-1.401a52.723 52.723 0 0 1-1.49-3.133c-.314-.715-.519-1.42-.91-2.06-1.88-3.077-3.904-4.935-7.038-6.76-.667-.388-1.47-.541-2.318-.741l-1.366-.083c-.277-.115-.567-.454-.828-.618-1.038-.653-3.702-2.074-4.471-.206-.485 1.18.727 2.33 1.16 2.927.303.419.693.888.91 1.36.143.31.168.62.29.948.301.807.563 1.685.952 2.431.197.378.414.775.662 1.113.153.206.414.298.455.618-.255.356-.27.91-.414 1.36-.646 2.03-.403 4.556.539 6.059.289.462.969 1.451 1.904 1.071.818-.331.636-1.36.87-2.267.053-.205.02-.356.124-.494v.041l.745 1.484c.552.885 1.53 1.808 2.359 2.432.43.323.769.883 1.325 1.072v-.042h-.041c-.108-.168-.276-.236-.414-.371a9.332 9.332 0 0 1-.952-1.072c-.755-1.02-1.421-2.135-2.029-3.297-.29-.554-.541-1.166-.786-1.731-.094-.218-.093-.547-.289-.659-.269.413-.663.748-.87 1.236-.331.78-.374 1.733-.496 2.72l-.083.041c-.577-.138-.78-.73-.994-1.236-.542-1.282-.643-3.346-.166-4.822.124-.382.681-1.585.455-1.938-.108-.351-.463-.555-.662-.824a6.43 6.43 0 0 1-.662-1.155c-.444-.999-.651-2.12-1.117-3.132-.224-.483-.601-.971-.911-1.4-.343-.477-.727-.827-.994-1.402-.094-.204-.223-.532-.083-.742.045-.142.109-.201.249-.248.24-.184.909.062 1.159.165.664.275 1.218.536 1.781.907.269.178.542.523.869.618h.372c.583.133 1.236.04 1.78.205.963.292 1.825.745 2.608 1.237 2.386 1.5 4.336 3.636 5.671 6.183.215.41.308.801.497 1.236.381.877.862 1.78 1.241 2.638.379.856.749 1.72 1.284 2.432.281.374 1.369.575 1.863.783.346.145.913.297 1.241.494.627.376 1.235.825 1.822 1.237.293.207 1.197.66 1.242 1.032Zm-18.504-15.703a2.966 2.966 0 0 0-.745.083v.04h.041c.145.297.4.488.58.743l.414.865.041-.04c.256-.18.373-.468.372-.907-.103-.108-.118-.243-.207-.371-.117-.172-.347-.269-.496-.413Z" />
    <path stroke="#fff" d="M408.5 34v28" opacity=".4" />
    <g clip-path="url(#a)">
        <path fill="#fff" fill-rule="evenodd"
            d="M543.964 43.087h-.283v.342h.283c.132 0 .217-.059.217-.168 0-.115-.08-.174-.217-.174Zm-.632-.316h.639c.349 0 .58.187.58.478a.454.454 0 0 1-.231.4l.25.356v.07h-.363l-.243-.34h-.283v.34h-.349v-1.304Zm1.784.677c0-.697-.474-1.227-1.2-1.227-.711 0-1.185.504-1.185 1.227 0 .69.474 1.227 1.185 1.227.726 0 1.2-.53 1.2-1.227Zm.297 0c0 .82-.559 1.505-1.494 1.505-.929 0-1.483-.69-1.483-1.505 0-.82.553-1.505 1.483-1.505.935.002 1.494.685 1.494 1.505Zm-83.799 2.918-2.886 1.636 2.886 1.63c.729.413.977 1.324.556 2.038-.42.711-1.35.955-2.076.544l-5.169-2.925a1.475 1.475 0 0 1-.69-.85 1.44 1.44 0 0 1-.016-.838c.104-.364.345-.69.704-.895l5.168-2.922a1.536 1.536 0 0 1 2.076.547 1.467 1.467 0 0 1-.553 2.035Zm-2.733 7.926-5.166-2.92a1.519 1.519 0 0 0-.88-.195 1.5 1.5 0 0 0-1.407 1.486v5.846c0 .825.678 1.491 1.52 1.491.841 0 1.521-.668 1.521-1.49v-3.271l2.893 1.636c.727.414 1.657.169 2.076-.544a1.478 1.478 0 0 0-.557-2.04Zm-5.962-5.72-2.148 2.103a.426.426 0 0 1-.269.112h-.631a.438.438 0 0 1-.269-.112l-2.148-2.102a.415.415 0 0 1-.111-.262v-.62c0-.086.049-.205.111-.266l2.146-2.101a.436.436 0 0 1 .27-.11h.632c.088 0 .208.047.269.11l2.148 2.101c.062.06.111.18.111.266v.62a.423.423 0 0 1-.111.262Zm-1.716-.582a.437.437 0 0 0-.115-.266l-.621-.607a.443.443 0 0 0-.27-.111h-.024a.435.435 0 0 0-.268.11l-.622.608a.436.436 0 0 0-.109.266v.024c0 .084.048.202.109.262l.622.61a.44.44 0 0 0 .268.11h.024c.087 0 .208-.05.27-.11l.621-.61a.424.424 0 0 0 .115-.262v-.024Zm-9.711-6.285 5.168 2.923c.278.157.586.22.882.195a1.504 1.504 0 0 0 1.407-1.487v-5.847c0-.821-.682-1.489-1.52-1.489-.841 0-1.521.668-1.521 1.49v3.271l-2.895-1.64a1.536 1.536 0 0 0-2.076.546 1.476 1.476 0 0 0 .555 2.038Zm11.343 3.118c.296.024.604-.038.88-.195l5.166-2.923a1.478 1.478 0 0 0 .557-2.038 1.537 1.537 0 0 0-2.076-.545l-2.893 1.639v-3.272c0-.821-.68-1.489-1.521-1.489-.842 0-1.52.668-1.52 1.49v5.846c-.002.785.618 1.43 1.407 1.487Zm-5.293 6.354a1.518 1.518 0 0 0-.882.195l-5.168 2.92a1.48 1.48 0 0 0-.556 2.04c.421.71 1.35.955 2.076.543l2.894-1.636v3.27c0 .825.68 1.491 1.522 1.491.838 0 1.519-.668 1.519-1.49v-5.847a1.498 1.498 0 0 0-1.405-1.486Zm-1.402-2.739a1.44 1.44 0 0 0 .015-.837 1.496 1.496 0 0 0-.708-.895l-5.165-2.922a1.534 1.534 0 0 0-2.075.547 1.469 1.469 0 0 0 .556 2.035l2.886 1.636-2.888 1.63a1.474 1.474 0 0 0-.556 2.038c.419.711 1.347.955 2.076.544l5.164-2.925c.35-.195.586-.504.695-.85Zm64.097-8.736h-.143c-.019 0-.037.001-.056.003a3.399 3.399 0 0 0-1.111.147c-.328.107-.63.283-.865.552l-.001-.002v.004c-.243.264-.402.58-.5.938a4.86 4.86 0 0 0-.141 1.229v.894h-1.006a.62.62 0 0 0-.626.607.652.652 0 0 0 .183.46.686.686 0 0 0 .45.203h.999v7.272l-.002.017c0 .17.072.328.19.44.116.11.28.176.458.176a.62.62 0 0 0 .618-.618v-7.29h1.081a.679.679 0 0 0 .449-.197.635.635 0 0 0 .19-.454v-.024c-.003-.328-.283-.596-.632-.596h-1.088v-.89c.007-.394.049-.689.109-.903a1.11 1.11 0 0 1 .21-.434.718.718 0 0 1 .31-.187c.149-.048.357-.078.637-.078h.033l.05-.003c.019 0 .038.003.058.003H510.232a.641.641 0 0 0 .648-.634.633.633 0 0 0-.643-.636Zm22.291 4.716a.629.629 0 0 0 .196-.449.588.588 0 0 0-.198-.435h.002c-.002-.003-.004-.003-.004-.003 0-.004-.003-.004-.003-.004h-.002a.635.635 0 0 0-.443-.183.646.646 0 0 0-.448.187l-4.976 4.752v-7.986c0-.344-.294-.625-.655-.625a.632.632 0 0 0-.447.185.63.63 0 0 0-.189.44V51.99c0 .17.077.328.189.438.114.11.273.185.447.185.361 0 .655-.278.655-.622v-1.93l1.62-1.587 3.304 3.906c.061.09.145.151.23.184a.801.801 0 0 0 .271.049.672.672 0 0 0 .415-.133l.008-.005.008-.009a.664.664 0 0 0 .209-.471.641.641 0 0 0-.157-.414v-.002l-3.363-4.005 3.327-3.155h.004v-.001Zm-8.985-.804c.118.112.19.272.19.446v7.93a.62.62 0 0 1-.186.438.652.652 0 0 1-.45.185.646.646 0 0 1-.448-.185.61.61 0 0 1-.189-.438v-.773c-.801.847-1.926 1.396-3.171 1.396a4.345 4.345 0 0 1-3.154-1.358 4.649 4.649 0 0 1-1.292-3.23c0-1.25.491-2.398 1.292-3.23a4.349 4.349 0 0 1 3.154-1.354c1.245 0 2.37.531 3.171 1.375v-.754c0-.174.072-.335.19-.447a.652.652 0 0 1 .447-.174c.169 0 .329.064.446.172Zm-1.083 4.412a3.45 3.45 0 0 0-.938-2.385 3.09 3.09 0 0 0-2.233-.973c-.858 0-1.646.37-2.229.973a3.447 3.447 0 0 0-.944 2.385c0 .937.366 1.77.944 2.373.579.602 1.37.964 2.229.964a3.08 3.08 0 0 0 2.234-.963 3.419 3.419 0 0 0 .937-2.374Zm-51.217-.223c-.514-.238-1.096-.412-1.678-.602-.535-.178-1.077-.328-1.464-.526a1.41 1.41 0 0 1-.446-.332.61.61 0 0 1-.151-.412.987.987 0 0 1 .183-.58c.174-.245.466-.436.785-.559a2.516 2.516 0 0 1 2.43.299c.172.122.319.248.458.35.07.053.137.102.214.138a.594.594 0 0 0 .252.064c.06 0 .118-.01.173-.033a.555.555 0 0 0 .155-.095.533.533 0 0 0 .114-.152.46.46 0 0 0 .037-.18.656.656 0 0 0-.088-.312 2.025 2.025 0 0 0-.433-.5 4.214 4.214 0 0 0-1.048-.652c-.399-.176-.827-.295-1.234-.295-.945 0-1.734.21-2.307.597-.299.202-.561.422-.746.728-.188.305-.294.683-.308 1.175v.066c-.002.476.155.87.401 1.178.374.464.928.74 1.472.937.543.197 1.087.314 1.428.427.483.157.995.327 1.37.553.187.116.336.24.438.377.099.14.155.284.159.467v.014a1.061 1.061 0 0 1-.213.65c-.199.266-.528.46-.879.584a3.11 3.11 0 0 1-.945.17c-.824 0-1.375-.194-1.777-.39-.201-.098-.363-.194-.51-.277a1.746 1.746 0 0 0-.214-.104.61.61 0 0 0-.228-.046.45.45 0 0 0-.161.03.476.476 0 0 0-.14.089.66.66 0 0 0-.138.18.483.483 0 0 0-.049.213c0 .123.046.233.113.335.103.147.257.276.447.407.197.13.431.256.701.382.6.277 1.368.422 1.952.431h.002c.909 0 1.692-.205 2.352-.681v-.002h.002c.646-.477 1.048-1.186 1.048-1.986 0-.44-.106-.813-.289-1.119-.278-.46-.729-.766-1.24-1.006Zm41.619-8.13a.639.639 0 0 0-.637.624V51.99c0 .17.072.328.188.438.115.11.275.185.449.185.361 0 .653-.278.655-.622V40.297a.64.64 0 0 0-.655-.625Zm29.298 8.058v.062c0 .172-.08.328-.2.43a.668.668 0 0 1-.44.158h-7.142c.182 1.709 1.575 2.97 3.235 2.982h.421c.549.002 1.084-.184 1.556-.492a3.837 3.837 0 0 0 1.168-1.2c.06-.1.144-.177.235-.223a.638.638 0 0 1 .622.012l.008.003.006.005c.18.13.291.325.291.54 0 .111-.03.221-.09.323l-.002.004-.001.002a5.323 5.323 0 0 1-1.59 1.6c-.648.412-1.398.672-2.203.672h-.428a4.527 4.527 0 0 1-3.203-1.358 4.562 4.562 0 0 1-1.317-3.211c0-1.27.505-2.421 1.328-3.255a4.521 4.521 0 0 1 3.227-1.348c1.206 0 2.291.471 3.094 1.241a4.705 4.705 0 0 1 1.421 3.043l.004.01Zm-1.395-.59c-.363-1.44-1.652-2.465-3.124-2.463-1.509 0-2.78 1.003-3.174 2.463h6.298Zm-62.736-3.685c-.996 0-1.907.382-2.584.99v-.363a.62.62 0 0 0-.618-.625.623.623 0 0 0-.638.625v8.095l.027.026.001.003a.336.336 0 0 0 .043.085c.086.15.229.264.405.314l.024.007h.138a.657.657 0 0 0 .271-.06.546.546 0 0 0 .195-.16h.002c.007-.007.009-.015.016-.022a.632.632 0 0 0 .086-.135c.018-.048.03-.094.039-.129l.005-.022v-4.862c.018-.695.31-1.323.778-1.78a2.568 2.568 0 0 1 1.807-.739 2.58 2.58 0 0 1 1.819.739 2.47 2.47 0 0 1 .746 1.774v4.773a.63.63 0 0 0 .19.447.658.658 0 0 0 .893 0 .614.614 0 0 0 .19-.447v-4.773c.006-2.06-1.711-3.757-3.835-3.76Zm12.657 1.345a4.665 4.665 0 0 1 0 6.449 4.349 4.349 0 0 1-3.152 1.36 4.369 4.369 0 0 1-3.147-1.36 4.663 4.663 0 0 1-1.297-3.224c0-1.243.496-2.39 1.297-3.225a4.368 4.368 0 0 1 3.147-1.362 4.362 4.362 0 0 1 3.152 1.362Zm.017 3.225a3.44 3.44 0 0 0-.944-2.378c-.582-.61-1.369-.98-2.227-.98-.856 0-1.646.373-2.227.98a3.44 3.44 0 0 0-.944 2.378c0 .928.364 1.762.944 2.366a3.083 3.083 0 0 0 2.227.971 3.08 3.08 0 0 0 2.227-.971c.58-.604.944-1.438.944-2.366Zm13.741-4.516-.003-.002-.004-.002a.59.59 0 0 0-.229-.048.678.678 0 0 0-.348.102.635.635 0 0 0-.249.283v.003l-2.431 6.52-1.874-4.37-.003-.001a.634.634 0 0 0-.254-.283.672.672 0 0 0-.965.283l-.001.002-1.877 4.372-2.443-6.517h-.001a.566.566 0 0 0-.233-.29.684.684 0 0 0-.354-.104.608.608 0 0 0-.239.049h-.004l-.003.003a.618.618 0 0 0-.322.799l3.005 7.91v.004a.604.604 0 0 0 .106.174.448.448 0 0 0 .141.104c.01.008.024.022.049.036a.253.253 0 0 0 .09.03c.053.018.125.044.22.044a.635.635 0 0 0 .336-.107.583.583 0 0 0 .226-.274l.007-.006 1.901-4.453 1.904 4.434h.001c.044.12.122.21.21.276a.716.716 0 0 0 .312.13h.079a.593.593 0 0 0 .373-.128.727.727 0 0 0 .231-.298v-.004l2.986-7.876a.619.619 0 0 0-.34-.795Z"
            clip-rule="evenodd" />
    </g>
    <defs>
        <clipPath id="a">
            <path fill="#fff" d="M438 36h108v24H438z" />
        </clipPath>
    </defs>
</svg>