<svg xmlns="http://www.w3.org/2000/svg" width="112" height="26" fill="none">
    <path fill="#172D33"
        d="m54.852 9.078-3.016 8.312h-.17L48.85 9.078h-2.46l-2.785 8.312h-.13l-3.068-8.312h-2.45l3.827 10.375h3.469l2.374-7.055 2.375 7.055h3.47l3.826-10.375h-2.446ZM56.401 19.453l5.234-10.375h3.499l5.19 10.375h-2.772l-1.267-2.617H60.44l-1.28 2.617H56.4Zm8.93-4.574-1.877-3.856h-.113l-1.95 3.856h3.94ZM82.197 12.009h-2.36c0-.643-.214-.972-1.21-.972H74.66c-.67 0-1.138.285-1.138 1.076 0 .942.483 1.06 1.138 1.06h4.31c2.176 0 3.227.24 3.227 3.125 0 2.196-.91 3.153-3.243 3.153h-4.765c-2.517 0-3.271-.942-3.271-2.945h2.36c0 .507.497.985 1.166.985h3.954c1.039 0 1.436-.357 1.436-1.195 0-.747-.156-1.167-1.508-1.167h-3.498c-2.687 0-3.669-.493-3.669-3.125 0-2.092 1.023-2.93 3.655-2.93h4.011c2.39.004 3.372.932 3.372 2.935ZM92.576 9.078l-3.226 4.828-3.565-4.828h-2.678l5.078 6.876v3.499h2.36v-3.499l4.597-6.876h-2.566ZM97.46 9.078l-1.384 2.063h4.124v8.312h2.361V11.14h4.167V9.078H97.46ZM33.598 7.524a3.69 3.69 0 0 1-.455 1.78l-6.01 10.94c-.938 1.705-3.014 2.291-4.636 1.305-1.623-.985-2.18-3.168-1.243-4.873l6.008-10.939c.938-1.707 3.013-2.292 4.636-1.306 1.09.66 1.7 1.86 1.7 3.093Z" />
    <path fill="#01889A"
        d="m22.558 9.304-6.008 10.94c-.938 1.705-3.013 2.291-4.636 1.305a3.49 3.49 0 0 1-1.437-1.718L5.693 9.1a3.722 3.722 0 0 1 .105-3.36c.629-1.144 1.769-1.784 2.942-1.784.576 0 1.16.154 1.694.478 1.088.662 1.698 1.86 1.698 3.093a3.69 3.69 0 0 1-.455 1.78 3.548 3.548 0 0 1-.612.814 1.43 1.43 0 0 0-.192.27c-.388.707-.158 1.612.517 2.022.221.135.463.198.702.198.48 0 .946-.256 1.21-.718.003-.006.007-.015.011-.02.004-.007.008-.013.008-.02l3.36-6.115c.938-1.707 3.014-2.292 4.636-1.306 1.623.984 2.179 3.166 1.241 4.873Z" />
</svg>