<svg xmlns="http://www.w3.org/2000/svg" width="151" height="34" fill="none">
    <path fill="#172D33"
        d="m73.952 11.87-4.066 10.87h-.23L65.86 11.87h-3.316l-3.756 10.87h-.174l-4.137-10.87h-3.303l5.16 13.568h4.676l3.202-9.226 3.201 9.226h4.68l5.156-13.567h-3.297ZM76.04 25.438l7.057-13.567h4.717l6.998 13.567h-3.738l-1.707-3.421h-7.881l-1.726 3.421h-3.72Zm12.04-5.981-2.531-5.043h-.152l-2.628 5.043h5.312ZM110.819 15.703h-3.183c0-.84-.288-1.27-1.63-1.27h-5.349c-.902 0-1.534.373-1.534 1.406 0 1.233.65 1.388 1.534 1.388h5.811c2.934 0 4.351.312 4.351 4.085 0 2.872-1.227 4.123-4.373 4.123h-6.424c-3.393 0-4.41-1.232-4.41-3.851h3.183c0 .664.67 1.29 1.571 1.29h5.331c1.4 0 1.936-.468 1.936-1.565 0-.976-.21-1.526-2.032-1.526h-4.717c-3.623 0-4.946-.644-4.946-4.085 0-2.736 1.379-3.832 4.927-3.832h5.408c3.223.005 4.546 1.218 4.546 3.837ZM124.812 11.87l-4.349 6.314-4.807-6.313h-3.61l6.846 8.992v4.575h3.182v-4.575l6.198-8.992h-3.46ZM131.396 11.87l-1.865 2.7h5.56v10.868h3.183V14.57h5.618v-2.698h-12.496ZM45.297 9.84c0 .79-.197 1.593-.614 2.327l-8.102 14.305c-1.264 2.23-4.063 2.997-6.25 1.708-2.188-1.29-2.94-4.142-1.676-6.373l8.1-14.304c1.264-2.234 4.063-2.998 6.25-1.709 1.47.863 2.292 2.432 2.292 4.045Z" />
    <path fill="#01889A"
        d="m30.413 12.167-8.1 14.305c-1.264 2.23-4.063 2.997-6.25 1.708a4.601 4.601 0 0 1-1.937-2.247L7.675 11.898a4.737 4.737 0 0 1 .141-4.393 4.56 4.56 0 0 1 3.968-2.333c.776 0 1.563.2 2.283.625 1.467.865 2.29 2.432 2.29 4.045a4.711 4.711 0 0 1-1.324 3.277 1.867 1.867 0 0 0-.373.468 1.957 1.957 0 0 0 .696 2.644c.299.177.624.258.947.258.645 0 1.275-.334 1.63-.938.005-.008.01-.019.016-.027.005-.008.01-.016.01-.025l4.53-7.996c1.265-2.234 4.064-2.998 6.251-1.709 2.188 1.287 2.938 4.14 1.673 6.373Z" />
</svg>