<svg width="24" height="25" viewBox="0 0 24 25" fill="none" xmlns="http://www.w3.org/2000/svg">
    <path fill-rule="evenodd" clip-rule="evenodd"
        d="M12 11.5C13.6569 11.5 15 10.1569 15 8.5C15 6.84315 13.6569 5.5 12 5.5C10.3431 5.5 9 6.84315 9 8.5C9 10.1569 10.3431 11.5 12 11.5ZM12 19.5C15.3137 19.5 18 18.1569 18 16.5C18 14.8431 15.3137 13.5 12 13.5C8.68629 13.5 6 14.8431 6 16.5C6 18.1569 8.68629 19.5 12 19.5ZM6.38165 13.519C3.91199 13.6713 2 14.7241 2 16.0001C2 17.0521 3.29949 17.9523 5.13963 18.3213C4.72843 17.7645 4.5 17.1483 4.5 16.5001C4.5 15.3567 5.21076 14.3129 6.38165 13.519ZM19.5001 16.5001C19.5001 17.1483 19.2716 17.7645 18.8604 18.3213C20.7006 17.9523 22.0001 17.0521 22.0001 16.0001C22.0001 14.7241 20.0881 13.6713 17.6184 13.519C18.7893 14.3129 19.5001 15.3567 19.5001 16.5001ZM15.7183 11.0354C16.2115 10.3134 16.5 9.44039 16.5 8.5C16.5 8.18794 16.4682 7.8833 16.4077 7.58914C16.5949 7.5312 16.7938 7.5 17 7.5C18.1045 7.5 19 8.39543 19 9.5C19 10.6046 18.1045 11.5 17 11.5C16.5123 11.5 16.0653 11.3254 15.7183 11.0354ZM7 7.5C7.20619 7.5 7.40509 7.5312 7.59223 7.58914C7.53176 7.8833 7.5 8.18794 7.5 8.5C7.5 9.44039 7.78845 10.3134 8.28171 11.0354C7.93462 11.3254 7.4877 11.5 7 11.5C5.89543 11.5 5 10.6046 5 9.5C5 8.39543 5.89543 7.5 7 7.5Z"
        fill="#01889A" />
</svg>