<svg xmlns="http://www.w3.org/2000/svg" width="24" height="25" fill="none">
    <path fill="#01889A" fill-rule="evenodd"
        d="M12 11.5a3 3 0 1 0 0-6 3 3 0 0 0 0 6Zm0 8c3.314 0 6-1.343 6-3s-2.686-3-6-3-6 1.343-6 3 2.686 3 6 3Zm-5.618-5.981C3.912 13.671 2 14.724 2 16c0 1.052 1.3 1.952 3.14 2.321-.412-.556-.64-1.173-.64-1.82 0-1.144.71-2.188 1.882-2.982ZM19.5 16.5c0 .648-.228 1.265-.64 1.821 1.84-.369 3.14-1.269 3.14-2.32 0-1.277-1.912-2.33-4.382-2.482 1.171.794 1.882 1.838 1.882 2.981Zm-3.782-5.465a4.518 4.518 0 0 0 .69-3.446 2 2 0 1 1-.69 3.446ZM7 7.5a2 2 0 0 1 .592.09 4.52 4.52 0 0 0 .69 3.445A2 2 0 1 1 7 7.5Z"
        clip-rule="evenodd" />
</svg>