<svg width="288" height="148" viewBox="0 0 288 148" fill="none" xmlns="http://www.w3.org/2000/svg">
<g clip-path="url(#clip0_897_651)">
<path fill-rule="evenodd" clip-rule="evenodd" d="M1.92566 33.4865C0.869295 33.4865 2.98203 45.6347 19.8839 55.142C31.504 62.0085 58.9696 75.2131 71.646 81.5513C62.6669 78.3822 32.0322 65.7057 0.869294 50.9166C0.341109 50.9166 2.98203 62.5366 19.8839 69.403C31.504 74.1567 56.8569 83.1358 70.5897 87.8895C62.6669 86.305 34.1449 78.9104 13.5457 72.044C13.5457 72.5721 19.3557 81.5513 32.5604 85.7768C42.5959 88.9459 69.0051 94.2277 79.0406 96.8686C72.1742 95.8123 38.8986 91.5868 21.9967 87.8895C21.9967 87.8895 27.8067 95.2841 38.3704 96.8686C47.3495 97.925 74.287 101.094 82.2097 102.151C76.9279 102.151 53.6877 101.094 34.6731 99.5096C34.6731 99.5096 41.5395 105.32 50.5186 105.848C54.7441 106.376 62.1387 106.376 69.0051 106.376C87.4916 106.376 87.0762 109.545 94.999 126.447H96.9989V102.679C91.7171 98.4532 85.907 93.1714 85.907 87.8895C85.907 83.664 95.4144 81.0231 85.907 73.1003C75.8715 65.1776 41.0113 42.4656 9.32025 15C8.79206 15 8.79206 25.5637 17.7712 34.5428C25.694 42.4656 57.9132 65.1776 71.646 74.6849L1.92566 33.4865Z" fill="white"/>
<path fill-rule="evenodd" clip-rule="evenodd" d="M286.073 33.4865C287.13 33.4865 285.017 45.6347 268.115 55.142C256.495 62.0085 229.029 75.2131 216.353 81.5513C225.332 78.3822 255.967 65.7057 287.13 50.9166C287.658 50.9166 285.017 62.5366 268.115 69.403C256.495 74.1567 231.142 83.1358 217.409 87.8895C225.332 86.305 253.854 78.9104 274.453 72.044C274.453 72.5721 268.643 81.5513 255.439 85.7768C245.403 88.9459 218.994 94.2277 208.958 96.8686C215.825 95.8123 249.1 91.5868 266.002 87.8895C266.002 87.8895 260.192 95.2841 249.629 96.8686C240.649 97.925 213.712 101.094 205.789 102.151C211.071 102.151 234.311 101.094 253.326 99.5096C253.326 99.5096 246.459 105.32 237.48 105.848C233.255 106.376 225.86 106.376 218.994 106.376C200.507 106.376 200.923 109.545 193 126.447H191V102.679C196.282 98.4532 202.092 93.1714 202.092 87.8895C202.092 83.664 192.585 81.0231 202.092 73.1003C212.127 65.1776 246.988 42.4656 278.679 15C279.207 15 279.207 25.5637 270.228 34.5428C262.305 42.4656 230.086 65.1776 216.353 74.6849L286.073 33.4865Z" fill="white"/>
<path fill-rule="evenodd" clip-rule="evenodd" d="M94.5 140V45.4847C94.5 42.1641 94.6488 38.8346 95.5035 35.6259C98.371 24.8601 108.852 0 144.5 0C175.476 0 187.142 22.0298 191.132 33.5943C192.69 38.1097 193 42.8997 193 47.6763V140C193 140 190 147.997 184 147.997C177 147.997 174.5 142.997 174.5 142.997C174.5 142.997 173 134.997 170.5 131.497C168 127.997 164 127.997 164 127.997C164 127.997 160 127.822 157 130.497C154.614 132.625 153.852 136.023 153.193 138.961C152.842 140.523 152.521 141.956 152 142.997C151.844 143.205 151.688 143.424 151.527 143.649C150.145 145.589 148.428 147.997 143.5 147.997C138 147.997 136.157 146.592 134 142.997C133.299 141.828 132.96 140.176 132.578 138.31C132.143 136.184 131.65 133.78 130.5 131.497C128.891 128.304 126 127.997 122.5 127.997C119.733 127.997 118.813 129.009 117.584 130.362C117.258 130.72 116.91 131.103 116.5 131.497C115 135.5 112 142.997 112 142.997C112 142.997 110.5 147.997 104 147.997C96.497 147.997 94.5 140 94.5 140ZM122 70C127.523 70 132 65.5229 132 60C132 54.4772 127.523 50 122 50C116.477 50 112 54.4772 112 60C112 65.5229 116.477 70 122 70ZM176 60C176 65.5229 171.523 70 166 70C160.477 70 156 65.5229 156 60C156 54.4772 160.477 50 166 50C171.523 50 176 54.4772 176 60ZM144 80.7344C148.971 80.7344 153 78.6 153 74.734C153 71.7295 150.566 71.8852 147.149 72.1038C146.169 72.1665 145.108 72.2343 144 72.2343C142.892 72.2343 141.831 72.1665 140.851 72.1038C137.434 71.8852 135 71.7295 135 74.734C135 78.6 139.029 80.7344 144 80.7344Z" fill="#3B858B"/>
<circle cx="166" cy="60" r="9.5" stroke="white"/>
<circle cx="122" cy="60" r="9.5" stroke="white"/>
<path d="M153.5 74.5008C153.5 75.8137 153.234 76.8188 152.782 77.5946C152.331 78.3681 151.676 78.9467 150.842 79.3776C149.148 80.2524 146.755 80.5008 144 80.5008C141.245 80.5008 138.852 80.2524 137.158 79.3776C136.324 78.9467 135.669 78.3681 135.218 77.5946C134.766 76.8188 134.5 75.8137 134.5 74.5008C134.5 73.2865 134.978 72.6102 135.674 72.2043C136.416 71.7715 137.463 71.6158 138.624 71.6172C139.769 71.6186 140.95 71.7707 141.937 71.8977L141.952 71.8997C142.439 71.9624 142.889 72.0202 143.248 72.0454C143.428 72.0581 143.6 72.0637 143.75 72.0554C143.83 72.051 143.923 72.042 144.018 72.0201C144.28 72.0702 144.591 72.0649 144.892 72.0456C145.286 72.0205 145.757 71.9629 146.258 71.8999C146.299 71.8946 146.341 71.8893 146.384 71.884C147.37 71.7597 148.49 71.6185 149.563 71.6172C150.693 71.6158 151.688 71.7715 152.388 72.1991C153.043 72.599 153.5 73.2736 153.5 74.5008Z" stroke="white"/>
</g>
<defs>
<clipPath id="clip0_897_651">
<rect width="288" height="148" fill="white"/>
</clipPath>
</defs>
</svg>
