<svg xmlns="http://www.w3.org/2000/svg" width="16" height="14" fill="none">
    <path fill="#172D33"
        d="M16 2.371c0 .402-.083.81-.258 1.182l-3.403 7.262c-.53 1.132-1.706 1.522-2.625.867-.92-.654-1.235-2.103-.704-3.235l3.402-7.262c.531-1.133 1.707-1.521 2.625-.867.618.438.963 1.235.963 2.053Z" />
    <path fill="#01889A"
        d="m9.749 3.553-3.402 7.262c-.532 1.132-1.707 1.522-2.626.867-.38-.27-.658-.676-.813-1.14L.198 3.417a2.853 2.853 0 0 1 .06-2.23C.614.427 1.259.002 1.924.002c.326 0 .656.102.959.317.616.44.961 1.235.961 2.054 0 .402-.083.809-.257 1.182a2.38 2.38 0 0 1-.347.54.961.961 0 0 0-.108.18c-.22.469-.09 1.07.292 1.341.126.09.262.131.398.131.271 0 .536-.17.685-.476l.006-.014a.028.028 0 0 0 .005-.012l1.903-4.06C6.95.052 8.127-.336 9.046.318c.919.653 1.234 2.102.703 3.235Z" />
</svg>